<svg xmlns="http://www.w3.org/2000/svg" viewBox="0 0 960 220" width="960" height="220" role="img" aria-label="Ai Seclists"><g stroke-linecap="round"><line x1="242.88" y1="112.98" x2="255.14" y2="117.46" stroke="#A9861F" stroke-opacity="0.340" stroke-width="1.10"/><line x1="241.93" y1="114.85" x2="252.76" y2="122.13" stroke="#A9861F" stroke-opacity="0.340" stroke-width="1.10"/><line x1="240.55" y1="116.44" x2="249.33" y2="126.10" stroke="#A9861F" stroke-opacity="0.340" stroke-width="1.10"/><line x1="238.84" y1="117.65" x2="245.05" y2="129.13" stroke="#A9861F" stroke-opacity="0.340" stroke-width="1.10"/><line x1="236.89" y1="118.42" x2="240.17" y2="131.05" stroke="#A9861F" stroke-opacity="0.340" stroke-width="1.10"/><line x1="234.81" y1="118.70" x2="234.98" y2="131.75" stroke="#A9861F" stroke-opacity="0.340" stroke-width="1.10"/><line x1="232.73" y1="118.47" x2="229.76" y2="131.18" stroke="#A9861F" stroke-opacity="0.340" stroke-width="1.10"/><line x1="230.76" y1="117.75" x2="224.84" y2="129.38" stroke="#A9861F" stroke-opacity="0.340" stroke-width="1.10"/><line x1="229.02" y1="116.58" x2="220.49" y2="126.46" stroke="#A9861F" stroke-opacity="0.340" stroke-width="1.10"/><line x1="227.61" y1="115.03" x2="216.96" y2="122.58" stroke="#A9861F" stroke-opacity="0.340" stroke-width="1.10"/><line x1="226.61" y1="113.19" x2="214.47" y2="117.97" stroke="#A9861F" stroke-opacity="0.340" stroke-width="1.10"/><line x1="226.08" y1="111.16" x2="213.15" y2="112.89" stroke="#A9861F" stroke-opacity="0.340" stroke-width="1.10"/><line x1="226.06" y1="109.06" x2="212.53" y2="107.59" stroke="#A9861F" stroke-opacity="0.392" stroke-width="1.25"/><line x1="226.53" y1="107.02" x2="210.97" y2="101.34" stroke="#A9861F" stroke-opacity="0.505" stroke-width="1.58"/><line x1="227.48" y1="105.15" x2="210.29" y2="93.60" stroke="#A9861F" stroke-opacity="0.608" stroke-width="1.88"/><line x1="228.85" y1="103.56" x2="211.98" y2="84.98" stroke="#A9861F" stroke-opacity="0.695" stroke-width="2.14"/><line x1="230.56" y1="102.35" x2="216.80" y2="76.90" stroke="#A9861F" stroke-opacity="0.762" stroke-width="2.33"/><line x1="232.52" y1="101.58" x2="224.58" y2="71.04" stroke="#A9861F" stroke-opacity="0.805" stroke-width="2.46"/><line x1="234.60" y1="101.30" x2="234.19" y2="68.76" stroke="#A9861F" stroke-opacity="0.820" stroke-width="2.50"/><line x1="236.68" y1="101.53" x2="243.89" y2="70.62" stroke="#A9861F" stroke-opacity="0.807" stroke-width="2.46"/><line x1="238.65" y1="102.25" x2="251.93" y2="76.16" stroke="#A9861F" stroke-opacity="0.768" stroke-width="2.35"/><line x1="240.39" y1="103.42" x2="257.08" y2="84.09" stroke="#A9861F" stroke-opacity="0.703" stroke-width="2.16"/><line x1="241.80" y1="104.97" x2="259.07" y2="92.73" stroke="#A9861F" stroke-opacity="0.618" stroke-width="1.91"/><line x1="242.80" y1="106.81" x2="258.58" y2="100.60" stroke="#A9861F" stroke-opacity="0.516" stroke-width="1.61"/><line x1="243.33" y1="108.84" x2="257.03" y2="107.01" stroke="#A9861F" stroke-opacity="0.404" stroke-width="1.29"/><line x1="243.35" y1="110.94" x2="256.33" y2="112.35" stroke="#A9861F" stroke-opacity="0.340" stroke-width="1.10"/></g><circle cx="234.70399999999995" cy="110.0" r="47.25" fill="none" stroke="#722F37" stroke-opacity="0.55" stroke-width="1"/><circle cx="234.70399999999995" cy="110.0" r="8.70" fill="#F5F1E6" stroke="#A9861F" stroke-opacity="0.85" stroke-width="1.5"/><circle cx="234.70399999999995" cy="110.0" r="2.44" fill="#A9861F"/><g transform="translate(329.70,116.00)" fill="#1a1a1a"><path transform="translate(0.00,0) scale(0.064000,-0.064000)" d="M182 251 195 275H472L479 251ZM708 12Q713 12 713 6Q713 0 708 0Q679 0 648 2Q616 4 587 4Q555 4 530 2Q506 0 477 0Q473 0 473 6Q473 12 477 12Q524 12 533 28Q543 44 520 90L308 524L346 583L149 135Q123 74 147 43Q171 12 232 12Q237 12 237 6Q237 0 232 0Q202 0 177 2Q152 4 114 4Q76 4 54 2Q31 0 -2 0Q-6 0 -6 6Q-6 12 -2 12Q25 12 45 23Q65 34 83 63Q102 91 125 144L339 631Q341 634 347 635Q354 635 355 631L598 137Q622 89 639 61Q657 34 673 23Q690 12 708 12Z"/><path transform="translate(54.34,0) scale(0.064000,-0.064000)" d="M214 81Q214 52 219 37Q224 22 241 17Q258 12 291 12Q294 12 294 6Q294 0 291 0Q266 0 235 1Q205 2 168 2Q133 2 101 1Q70 0 44 0Q42 0 42 6Q42 12 45 12Q78 12 95 17Q112 22 118 37Q124 52 124 81V544Q124 573 118 588Q112 602 95 608Q78 613 44 613Q42 613 42 619Q42 625 44 625Q70 625 101 624Q133 622 168 622Q205 622 236 624Q267 625 291 625Q294 625 294 619Q294 613 291 613Q258 613 242 607Q225 601 219 586Q214 571 214 542Z"/><path transform="translate(111.74,0) scale(0.064000,-0.064000)" d="M160 516Q160 477 180 448Q200 419 232 396Q264 374 299 352Q337 329 371 303Q405 278 428 244Q450 211 450 163Q450 112 424 73Q398 33 351 11Q304 -12 239 -12Q212 -12 184 -7Q156 -2 131 6Q106 15 89 26Q84 29 82 33Q79 36 79 45L71 193Q70 198 76 198Q81 199 82 195Q93 164 109 131Q124 98 146 71Q168 43 197 26Q226 9 264 9Q290 9 314 18Q338 27 353 50Q369 73 369 113Q369 161 348 194Q326 227 293 252Q260 277 224 299Q189 321 157 345Q124 369 104 401Q84 432 84 477Q84 532 113 567Q143 602 188 619Q234 636 282 636Q315 636 348 630Q381 624 406 613Q415 610 418 605Q421 600 421 594L424 463Q424 460 419 459Q414 458 413 461Q408 477 398 503Q388 529 371 555Q353 581 326 599Q299 617 261 617Q229 617 206 604Q184 591 172 569Q160 547 160 516Z"/><path transform="translate(152.90,0) scale(0.064000,-0.064000)" d="M473 0H42Q40 0 40 6Q40 12 42 12Q76 12 92 17Q109 22 115 37Q120 52 120 81V544Q120 573 115 588Q109 602 92 608Q76 613 42 613Q40 613 40 619Q40 625 42 625H455Q465 625 465 616L467 488Q467 485 462 485Q457 484 455 487Q446 543 412 572Q378 600 323 600H278Q251 600 236 595Q221 589 215 576Q209 563 209 541V85Q209 63 214 49Q220 36 233 30Q246 25 271 25H326Q390 25 430 58Q470 91 486 154Q487 157 492 156Q498 155 498 152Q494 125 491 86Q488 48 488 15Q488 0 473 0ZM417 228Q417 270 391 292Q364 313 309 313H167V337H311Q365 337 390 356Q416 375 416 411Q416 413 422 413Q427 413 427 411Q427 379 427 362Q426 344 426 325Q426 301 428 278Q429 255 429 228Q429 226 423 226Q417 226 417 228Z"/><path transform="translate(196.74,0) scale(0.064000,-0.064000)" d="M419 636Q455 636 488 633Q520 629 549 622Q577 615 602 603Q609 599 612 596Q614 592 615 580L627 451Q627 448 622 447Q617 446 615 450Q590 532 538 575Q487 618 409 618Q333 618 275 581Q217 544 184 477Q151 410 151 317Q151 249 171 192Q191 135 228 93Q264 52 312 29Q360 6 416 6Q493 6 542 46Q590 85 624 168Q626 171 631 170Q635 169 635 166L623 49Q622 37 620 34Q618 30 610 26Q560 5 513 -4Q466 -12 416 -12Q309 -12 226 28Q143 69 96 143Q49 216 49 312Q49 384 77 444Q104 503 155 546Q205 589 273 613Q340 636 419 636Z"/><path transform="translate(249.41,0) scale(0.064000,-0.064000)" d="M200 543V85Q200 59 204 46Q209 33 224 29Q239 25 268 25H338Q406 25 452 64Q498 103 513 168Q513 171 518 170Q524 170 524 167Q521 136 518 94Q515 51 515 15Q515 0 499 0H32Q30 0 30 6Q30 12 32 12Q66 12 83 17Q99 22 105 37Q111 52 111 81V544Q111 573 105 588Q99 602 83 608Q66 613 32 613Q30 613 30 619Q30 625 32 625Q56 625 88 624Q120 622 154 622Q191 622 222 624Q253 625 277 625Q280 625 280 619Q280 613 277 613Q244 613 228 608Q211 602 205 587Q200 572 200 543Z"/><path transform="translate(292.86,0) scale(0.064000,-0.064000)" d="M214 81Q214 52 219 37Q224 22 241 17Q258 12 291 12Q294 12 294 6Q294 0 291 0Q266 0 235 1Q205 2 168 2Q133 2 101 1Q70 0 44 0Q42 0 42 6Q42 12 45 12Q78 12 95 17Q112 22 118 37Q124 52 124 81V544Q124 573 118 588Q112 602 95 608Q78 613 44 613Q42 613 42 619Q42 625 44 625Q70 625 101 624Q133 622 168 622Q205 622 236 624Q267 625 291 625Q294 625 294 619Q294 613 291 613Q258 613 242 607Q225 601 219 586Q214 571 214 542Z"/><path transform="translate(323.39,0) scale(0.064000,-0.064000)" d="M160 516Q160 477 180 448Q200 419 232 396Q264 374 299 352Q337 329 371 303Q405 278 428 244Q450 211 450 163Q450 112 424 73Q398 33 351 11Q304 -12 239 -12Q212 -12 184 -7Q156 -2 131 6Q106 15 89 26Q84 29 82 33Q79 36 79 45L71 193Q70 198 76 198Q81 199 82 195Q93 164 109 131Q124 98 146 71Q168 43 197 26Q226 9 264 9Q290 9 314 18Q338 27 353 50Q369 73 369 113Q369 161 348 194Q326 227 293 252Q260 277 224 299Q189 321 157 345Q124 369 104 401Q84 432 84 477Q84 532 113 567Q143 602 188 619Q234 636 282 636Q315 636 348 630Q381 624 406 613Q415 610 418 605Q421 600 421 594L424 463Q424 460 419 459Q414 458 413 461Q408 477 398 503Q388 529 371 555Q353 581 326 599Q299 617 261 617Q229 617 206 604Q184 591 172 569Q160 547 160 516Z"/><path transform="translate(364.54,0) scale(0.064000,-0.064000)" d="M206 604Q144 604 107 568Q70 531 50 456Q50 454 44 454Q39 454 39 457Q41 470 43 495Q45 519 48 548Q50 576 51 603Q53 630 53 647Q53 652 59 652Q64 652 64 647Q64 637 74 632Q84 628 98 626Q111 625 120 625Q206 622 321 622Q391 622 433 624Q475 625 514 625Q549 625 567 630Q586 634 591 650Q592 654 597 654Q602 654 602 650Q601 634 599 607Q597 580 596 550Q595 520 594 495Q593 469 593 457Q593 454 587 454Q582 454 581 457Q572 535 536 570Q501 604 438 604Q408 604 392 600Q377 595 372 582Q367 568 367 542V81Q367 52 373 37Q379 22 398 17Q417 12 456 12Q459 12 459 6Q459 0 456 0Q429 0 395 1Q361 2 321 2Q282 2 248 1Q214 0 186 0Q183 0 183 6Q183 12 186 12Q224 12 244 17Q263 22 270 37Q277 52 277 81V544Q277 570 272 583Q266 596 251 600Q236 604 206 604Z"/><path transform="translate(414.40,0) scale(0.064000,-0.064000)" d="M160 516Q160 477 180 448Q200 419 232 396Q264 374 299 352Q337 329 371 303Q405 278 428 244Q450 211 450 163Q450 112 424 73Q398 33 351 11Q304 -12 239 -12Q212 -12 184 -7Q156 -2 131 6Q106 15 89 26Q84 29 82 33Q79 36 79 45L71 193Q70 198 76 198Q81 199 82 195Q93 164 109 131Q124 98 146 71Q168 43 197 26Q226 9 264 9Q290 9 314 18Q338 27 353 50Q369 73 369 113Q369 161 348 194Q326 227 293 252Q260 277 224 299Q189 321 157 345Q124 369 104 401Q84 432 84 477Q84 532 113 567Q143 602 188 619Q234 636 282 636Q315 636 348 630Q381 624 406 613Q415 610 418 605Q421 600 421 594L424 463Q424 460 419 459Q414 458 413 461Q408 477 398 503Q388 529 371 555Q353 581 326 599Q299 617 261 617Q229 617 206 604Q184 591 172 569Q160 547 160 516Z"/></g><line x1="329.70399999999995" y1="140.0" x2="776.30" y2="140.0" stroke="#1a1a1a" stroke-opacity="0.28" stroke-width="1"/><g transform="translate(337.96,168.00)" fill="#722F37" opacity="0.72"><path transform="translate(0.00,0) scale(0.013500,-0.013500)" d="M272 -12Q203 -12 144 14Q86 40 41 85L93 146Q128 110 176 90Q223 70 274 70Q336 70 370 97Q404 125 404 170Q404 201 390 220Q376 239 352 253Q328 266 297 279L204 320Q173 333 142 355Q112 377 92 410Q72 443 72 490Q72 541 99 581Q126 621 173 644Q221 668 282 668Q342 668 392 645Q443 623 478 588L428 527Q397 554 361 570Q324 586 282 586Q230 586 198 562Q166 537 166 496Q166 466 182 447Q197 428 223 416Q248 404 273 392L365 353Q404 336 435 314Q465 291 482 258Q499 225 499 177Q499 125 472 82Q446 39 394 13Q343 -12 272 -12Z"/><path transform="translate(11.30,0) scale(0.013500,-0.013500)" d="M88 0V656H471V577H181V383H426V304H181V79H481V0Z"/><path transform="translate(22.50,0) scale(0.013500,-0.013500)" d="M341 -12Q259 -12 193 28Q127 68 89 144Q51 220 51 327Q51 406 73 470Q95 533 135 577Q176 621 229 644Q282 668 344 668Q405 668 451 644Q498 619 528 586L477 529Q451 556 419 571Q386 586 346 586Q288 586 243 554Q198 523 173 465Q147 408 147 329Q147 249 172 191Q196 133 241 101Q287 70 348 70Q393 70 428 88Q463 105 493 137L541 82Q502 37 453 12Q404 -12 341 -12Z"/><path transform="translate(34.28,0) scale(0.013500,-0.013500)" d="M324 -12Q272 -12 228 3Q185 18 152 51Q120 84 103 139Q85 193 85 272V656H178V267Q178 192 197 149Q216 106 250 88Q283 70 324 70Q367 70 401 88Q434 106 454 149Q474 192 474 267V656H563V272Q563 193 546 139Q528 84 496 51Q464 18 420 3Q377 -12 324 -12Z"/><path transform="translate(47.07,0) scale(0.013500,-0.013500)" d="M88 0V656H298Q365 656 418 638Q470 620 500 579Q531 538 531 468Q531 401 500 358Q470 314 418 292Q365 271 298 271H181V0ZM181 346H286Q360 346 399 377Q438 407 438 468Q438 530 399 555Q360 580 286 580H181ZM447 0 280 296 351 347 552 0Z"/><path transform="translate(58.90,0) scale(0.013500,-0.013500)" d="M88 0V656H181V0Z"/><path transform="translate(66.58,0) scale(0.013500,-0.013500)" d="M223 0V576H27V656H512V576H316V0Z"/><path transform="translate(77.91,0) scale(0.013500,-0.013500)" d="M195 0V251L-2 656H98L178 476Q193 439 208 405Q223 370 240 333H244Q261 370 277 405Q293 439 308 476L388 656H485L288 251V0Z"/><path transform="translate(96.32,0) scale(0.013500,-0.013500)" d="M88 0V656H281Q354 656 410 637Q466 618 497 576Q529 533 529 460Q529 390 498 344Q467 299 411 277Q356 254 285 254H181V0ZM181 330H275Q357 330 397 361Q436 393 436 460Q436 528 395 554Q353 580 271 580H181Z"/><path transform="translate(108.08,0) scale(0.013500,-0.013500)" d="M1 0 220 656H327L547 0H448L338 361Q321 415 305 470Q290 525 274 581H270Q256 524 241 470Q225 415 208 361L96 0ZM121 193V267H425V193Z"/><path transform="translate(119.53,0) scale(0.013500,-0.013500)" d="M195 0V251L-2 656H98L178 476Q193 439 208 405Q223 370 240 333H244Q261 370 277 405Q293 439 308 476L388 656H485L288 251V0Z"/><path transform="translate(130.11,0) scale(0.013500,-0.013500)" d="M88 0V656H181V79H463V0Z"/><path transform="translate(140.79,0) scale(0.013500,-0.013500)" d="M334 -12Q250 -12 187 30Q123 72 87 148Q51 225 51 331Q51 436 87 511Q123 587 187 627Q250 668 334 668Q417 668 481 627Q545 587 581 511Q617 436 617 331Q617 225 581 148Q545 72 481 30Q417 -12 334 -12ZM334 70Q390 70 432 102Q473 134 497 193Q520 252 520 331Q520 409 497 467Q473 524 432 555Q390 586 334 586Q277 586 236 555Q194 524 170 467Q147 409 147 331Q147 252 170 193Q194 134 236 102Q277 70 334 70Z"/><path transform="translate(153.85,0) scale(0.013500,-0.013500)" d="M1 0 220 656H327L547 0H448L338 361Q321 415 305 470Q290 525 274 581H270Q256 524 241 470Q225 415 208 361L96 0ZM121 193V267H425V193Z"/><path transform="translate(165.29,0) scale(0.013500,-0.013500)" d="M88 0V656H255Q356 656 425 618Q495 581 531 508Q567 436 567 331Q567 225 532 151Q496 77 427 39Q358 0 260 0ZM181 76H248Q322 76 372 106Q421 135 446 191Q471 248 471 331Q471 412 446 468Q421 524 372 551Q322 579 248 579H181Z"/><path transform="translate(177.69,0) scale(0.013500,-0.013500)" d="M272 -12Q203 -12 144 14Q86 40 41 85L93 146Q128 110 176 90Q223 70 274 70Q336 70 370 97Q404 125 404 170Q404 201 390 220Q376 239 352 253Q328 266 297 279L204 320Q173 333 142 355Q112 377 92 410Q72 443 72 490Q72 541 99 581Q126 621 173 644Q221 668 282 668Q342 668 392 645Q443 623 478 588L428 527Q397 554 361 570Q324 586 282 586Q230 586 198 562Q166 537 166 496Q166 466 182 447Q197 428 223 416Q248 404 273 392L365 353Q404 336 435 314Q465 291 482 258Q499 225 499 177Q499 125 472 82Q446 39 394 13Q343 -12 272 -12Z"/><path transform="translate(196.82,0) scale(0.013500,-0.013500)" d="M88 0V656H471V577H181V366H427V287H181V0Z"/><path transform="translate(207.60,0) scale(0.013500,-0.013500)" d="M334 -12Q250 -12 187 30Q123 72 87 148Q51 225 51 331Q51 436 87 511Q123 587 187 627Q250 668 334 668Q417 668 481 627Q545 587 581 511Q617 436 617 331Q617 225 581 148Q545 72 481 30Q417 -12 334 -12ZM334 70Q390 70 432 102Q473 134 497 193Q520 252 520 331Q520 409 497 467Q473 524 432 555Q390 586 334 586Q277 586 236 555Q194 524 170 467Q147 409 147 331Q147 252 170 193Q194 134 236 102Q277 70 334 70Z"/><path transform="translate(220.66,0) scale(0.013500,-0.013500)" d="M88 0V656H298Q365 656 418 638Q470 620 500 579Q531 538 531 468Q531 401 500 358Q470 314 418 292Q365 271 298 271H181V0ZM181 346H286Q360 346 399 377Q438 407 438 468Q438 530 399 555Q360 580 286 580H181ZM447 0 280 296 351 347 552 0Z"/><path transform="translate(240.31,0) scale(0.013500,-0.013500)" d="M223 0V576H27V656H512V576H316V0Z"/><path transform="translate(251.64,0) scale(0.013500,-0.013500)" d="M88 0V656H471V577H181V383H426V304H181V79H481V0Z"/><path transform="translate(262.84,0) scale(0.013500,-0.013500)" d="M272 -12Q203 -12 144 14Q86 40 41 85L93 146Q128 110 176 90Q223 70 274 70Q336 70 370 97Q404 125 404 170Q404 201 390 220Q376 239 352 253Q328 266 297 279L204 320Q173 333 142 355Q112 377 92 410Q72 443 72 490Q72 541 99 581Q126 621 173 644Q221 668 282 668Q342 668 392 645Q443 623 478 588L428 527Q397 554 361 570Q324 586 282 586Q230 586 198 562Q166 537 166 496Q166 466 182 447Q197 428 223 416Q248 404 273 392L365 353Q404 336 435 314Q465 291 482 258Q499 225 499 177Q499 125 472 82Q446 39 394 13Q343 -12 272 -12Z"/><path transform="translate(274.14,0) scale(0.013500,-0.013500)" d="M223 0V576H27V656H512V576H316V0Z"/><path transform="translate(285.47,0) scale(0.013500,-0.013500)" d="M88 0V656H181V0Z"/><path transform="translate(293.15,0) scale(0.013500,-0.013500)" d="M88 0V656H190L411 262Q430 229 447 193Q464 156 480 119H484Q481 171 477 225Q473 280 473 331V656H562V0H460L238 393Q220 426 202 463Q184 500 168 536H164Q169 487 173 433Q177 379 177 326V0Z"/><path transform="translate(305.98,0) scale(0.013500,-0.013500)" d="M351 -12Q264 -12 196 28Q128 68 89 144Q51 220 51 327Q51 406 74 469Q97 532 138 577Q179 621 234 645Q290 668 355 668Q423 668 470 642Q517 617 546 586L496 528Q471 554 438 570Q406 586 357 586Q294 586 246 555Q199 523 173 466Q147 409 147 329Q147 249 172 191Q196 133 244 101Q291 70 360 70Q393 70 423 79Q452 89 470 105V267H336V344H555V65Q523 32 470 10Q417 -12 351 -12Z"/><path transform="translate(326.23,0) scale(0.013500,-0.013500)" d="M1 0 220 656H327L547 0H448L338 361Q321 415 305 470Q290 525 274 581H270Q256 524 241 470Q225 415 208 361L96 0ZM121 193V267H425V193Z"/><path transform="translate(337.68,0) scale(0.013500,-0.013500)" d="M88 0V656H181V0Z"/><path transform="translate(353.19,0) scale(0.013500,-0.013500)" d="M272 -12Q203 -12 144 14Q86 40 41 85L93 146Q128 110 176 90Q223 70 274 70Q336 70 370 97Q404 125 404 170Q404 201 390 220Q376 239 352 253Q328 266 297 279L204 320Q173 333 142 355Q112 377 92 410Q72 443 72 490Q72 541 99 581Q126 621 173 644Q221 668 282 668Q342 668 392 645Q443 623 478 588L428 527Q397 554 361 570Q324 586 282 586Q230 586 198 562Q166 537 166 496Q166 466 182 447Q197 428 223 416Q248 404 273 392L365 353Q404 336 435 314Q465 291 482 258Q499 225 499 177Q499 125 472 82Q446 39 394 13Q343 -12 272 -12Z"/><path transform="translate(364.49,0) scale(0.013500,-0.013500)" d="M195 0V251L-2 656H98L178 476Q193 439 208 405Q223 370 240 333H244Q261 370 277 405Q293 439 308 476L388 656H485L288 251V0Z"/><path transform="translate(375.07,0) scale(0.013500,-0.013500)" d="M272 -12Q203 -12 144 14Q86 40 41 85L93 146Q128 110 176 90Q223 70 274 70Q336 70 370 97Q404 125 404 170Q404 201 390 220Q376 239 352 253Q328 266 297 279L204 320Q173 333 142 355Q112 377 92 410Q72 443 72 490Q72 541 99 581Q126 621 173 644Q221 668 282 668Q342 668 392 645Q443 623 478 588L428 527Q397 554 361 570Q324 586 282 586Q230 586 198 562Q166 537 166 496Q166 466 182 447Q197 428 223 416Q248 404 273 392L365 353Q404 336 435 314Q465 291 482 258Q499 225 499 177Q499 125 472 82Q446 39 394 13Q343 -12 272 -12Z"/><path transform="translate(386.37,0) scale(0.013500,-0.013500)" d="M223 0V576H27V656H512V576H316V0Z"/><path transform="translate(397.70,0) scale(0.013500,-0.013500)" d="M88 0V656H471V577H181V383H426V304H181V79H481V0Z"/><path transform="translate(408.90,0) scale(0.013500,-0.013500)" d="M88 0V656H203L323 314Q335 282 345 249Q355 217 366 180H370Q380 217 389 249Q399 282 410 314L530 656H645V0H558V342Q558 371 560 408Q562 446 565 482Q568 519 571 549H567L516 388L398 64H332L214 388L164 549H160Q163 519 166 482Q168 446 170 408Q172 371 172 342V0Z"/><path transform="translate(422.83,0) scale(0.013500,-0.013500)" d="M272 -12Q203 -12 144 14Q86 40 41 85L93 146Q128 110 176 90Q223 70 274 70Q336 70 370 97Q404 125 404 170Q404 201 390 220Q376 239 352 253Q328 266 297 279L204 320Q173 333 142 355Q112 377 92 410Q72 443 72 490Q72 541 99 581Q126 621 173 644Q221 668 282 668Q342 668 392 645Q443 623 478 588L428 527Q397 554 361 570Q324 586 282 586Q230 586 198 562Q166 537 166 496Q166 466 182 447Q197 428 223 416Q248 404 273 392L365 353Q404 336 435 314Q465 291 482 258Q499 225 499 177Q499 125 472 82Q446 39 394 13Q343 -12 272 -12Z"/></g></svg>